<?xml version="1.0" standalone="yes"?>
<svg xmlns="http://www.w3.org/2000/svg" width="161" height="150">
<path style="fill:#8ec644; stroke:none;" d="M59 56L60.6713 56.6304L61.159 56.8372L64.0247 57.9529L68 59.4491C69.684 60.1389 71.353 60.8662 73 61.6404C74.0098 62.1152 75.0163 62.595 76 63.1227C77.0212 63.6705 78.0211 64.2565 79 64.8765C81.8526 66.6834 84.5383 68.7627 86.9853 71.0903C88.8942 72.906 90.6761 74.8561 92.2114 77C93.1261 78.2772 93.9161 79.6271 94.6759 81L95.6759 83L96.5355 85C97.0704 86.298 97.4588 87.6517 97.841 89C98.12 89.9839 98.354 90.9935 98.5355 92C98.7148 92.9947 98.8392 93.9918 98.9097 95C98.9796 95.999 98.982 96.9993 98.9954 98C99.0087 98.9977 99.0043 100.003 98.9606 101C98.9166 102.005 98.8427 103.002 98.7106 104C98.533 105.342 98.2649 106.673 97.9961 108C97.5878 110.015 97.1432 112.027 96.561 114C96.0778 115.638 95.4758 117.231 94.9066 118.84L94.5872 119.841L94.4136 120.329L94 122L95.6713 121.267L97.1605 120.43L99.0239 119.197L100.987 117.671L101.96 116.815L103.815 114.96C105.734 112.874 107.353 110.507 108.672 108L109.64 106L110.401 104L110.957 102L111.381 100L111.56 99L111.826 97C111.917 96.0012 111.942 95.0019 111.896 94C111.835 92.6595 111.646 91.3148 111.381 90L110.957 88L110.699 87L110.049 85L109.204 83L107.247 79C106.41 77.3257 105.582 75.6465 104.691 74L101.309 68C100.604 66.6869 99.934 65.3536 99.3094 64C98.7007 62.6807 98.1456 61.3378 97.5795 60L96.3202 57L95.5941 55L95.2963 54L94.5293 51C94.0188 49.0139 93.4201 47.0441 93.1852 45C92.8778 42.3246 93.1217 39.6358 93.6188 37C93.8728 35.6532 94.1699 34.3032 94.5988 33C95.0551 31.6133 95.6486 30.2713 96.3665 29L97.6196 27.0046L99.0748 25.0448L99.784 24.1605L100.526 23.159L100.93 22.6713L102 21L100.329 21.098L98.8395 21.2901L95.9954 21.8079C94.6517 22.0708 93.3119 22.3772 92 22.7708C90.6443 23.1776 89.3097 23.6717 88 24.2076C86.6502 24.7598 85.3053 25.318 84 25.9707C82.6333 26.6541 81.3096 27.4213 80 28.2076C78.2846 29.2374 76.5837 30.3022 75 31.5285C73.2359 32.8946 71.598 34.4194 70.0401 36.0147C68.5113 37.5801 67.0638 39.2196 65.7886 41C64.6543 42.5838 63.688 44.2767 62.7847 46C62.2675 46.9868 61.7846 47.9891 61.3133 48.9985L60.4684 50.9753L59.794 52.8395L59.3573 54.3287L59 56M23 33L24 34L23 33z"/>
<path style="fill:#3cb34c; stroke:none;" d="M23 34L21.8781 38.0448L20.5756 43C20.019 45.0014 19.3997 46.9842 18.8951 49L17.7654 54L16.4992 59L16.0949 61L15.7546 63C15.535 64.3314 15.3242 65.6597 15.1659 67L14.8341 71C14.6194 73.0057 14.2275 74.9853 14.0895 77C14.0211 77.9984 14.0127 78.9997 14.0039 80L14 83L14.0039 87C14.0127 88.0002 14.0211 89.0016 14.0895 90C14.2047 91.6811 14.4911 93.334 14.7292 95C14.9674 96.6671 15.1431 98.3451 15.4606 100C15.8501 102.03 16.4029 104.031 17.0285 106C17.6768 108.04 18.4067 110.065 19.3264 112C20.3277 114.107 21.5302 116.117 22.9275 117.985C23.9147 119.306 24.9817 120.559 26.1736 121.7C27.3681 122.843 28.6752 123.861 30.0039 124.841C31.2975 125.796 32.6316 126.682 34 127.525L36 128.626L37 129.11L40 130.395C41.956 131.191 43.9369 131.996 46 132.472C47.9704 132.927 50 133.021 52 133.282C53.3331 133.455 54.659 133.721 56 133.83L58 133.961L63 134C64.6649 134 66.3362 134.034 68 133.961C69.3429 133.902 70.671 133.775 72 133.572L76 132.934C76.9946 132.792 77.9952 132.646 79 132.598L81 132.594L84 132.86C85.3347 132.987 86.6712 133.101 88 133.282C89.6665 133.509 91.3199 133.795 93 133.91C94.6628 134.024 96.3344 133.997 98 134L104 134L110 134C111.665 133.997 113.337 134.025 115 133.91C116.682 133.795 118.337 133.515 120 133.246L125 132.414C126.667 132.133 128.342 131.884 130 131.551C132.352 131.078 134.674 130.458 137 129.873C139.346 129.284 141.694 128.705 144 127.971C145.347 127.543 146.686 127.079 147.998 126.551L151.84 124.961L152.841 124.613L153.329 124.425L155 124L153.914 123.517L153.483 123.54L152.679 123.487L150.941 123.794L148.995 124.348L147 124.975C145.673 125.379 144.342 125.762 143 126.116C141.011 126.641 139.009 127.132 137 127.576C134.676 128.089 132.336 128.54 130 128.999L127 129.576L123 130.246C121.337 130.516 119.682 130.795 118 130.91C116.67 131.002 115.333 130.996 114 130.999L109 131L103 130.999C101.331 130.991 99.6629 130.991 98 130.83C96.3229 130.668 94.6611 130.355 93 130.08C90.6573 129.693 88.3142 129.302 86 128.765C84.3175 128.374 82.6612 127.891 81 127.421C79.6651 127.042 78.3166 126.694 77 126.255C74.9704 125.577 72.9764 124.808 71 123.988C68.616 123 66.2635 121.93 64 120.687C62.6323 119.936 61.2862 119.135 60 118.251C57.9445 116.837 55.9598 115.332 54 113.789C51.9603 112.183 49.9448 110.55 48 108.829C46.6256 107.614 45.3138 106.315 44.0394 104.996C42.7984 103.712 41.5822 102.394 40.4645 101C38.4067 98.4329 36.4908 95.7566 34.6952 93C33.4445 91.0799 32.278 89.1074 31.0702 87.1605L30.1258 85.6713L29 84L30.3441 85.0864L30.7145 85.517L31.49 86.321L34.4506 90.0046L37.7539 94L39.4282 95.9992C40.5834 97.3416 41.7537 98.6667 43.0208 99.9059L44.8657 101.669L45.6798 102.421L46.483 103.246L46.9136 103.64L48 105L48.5849 103.914L48.642 103.483L48.8395 102.681C48.9431 101.799 48.9568 100.912 48.9861 100.026L48.9992 98.1582L49 96L43 96L44.0864 94.6404L44.517 94.2469L45.321 93.4244C46.8564 92.012 48.422 90.6345 50.0008 89.2708L53 86.7153L58 82.1659L61 79.5772L63 77.8681L65 76.2423L67 75.1134L68 74.885L69 74.9213L70 75.2114L72 76.3989C73.0462 77.198 74.0155 78.0793 75 78.9514L77 80.7184L81 84.1659L85 87.8341L89.9552 92.125C91.3543 93.3648 92.6652 94.6927 94 96L88 96L88 111L87.9992 116L87.9599 118.995L87.8218 120.955L87.5216 122.841L87.4321 123.329L87 125L88.2423 124.346L89.1605 123.39L90.1188 121.851C90.5847 120.914 90.9937 119.961 91.3951 118.995L92.189 117L93.304 114C93.8672 112.363 94.3814 110.71 94.6752 109C94.9593 107.346 94.987 105.666 95.1659 104L95.5748 101L95.8156 99L95.8711 97C95.8268 95.3174 95.53 93.6428 95.1813 92C94.968 90.9948 94.7416 89.9802 94.4298 89L93.7569 87C93.3563 85.9935 92.9813 84.9771 92.51 84L92.0293 83C91.3234 81.6376 90.5875 80.2899 89.7531 79.0008L88.3904 77.0147L87.6211 76.0394L86.7901 75.0903L84.9568 73.3009L83.9846 72.4676C82.6973 71.4366 81.385 70.4453 80 69.5478C78.3954 68.5082 76.7058 67.6191 75 66.76C74.0088 66.2608 73.0124 65.764 72 65.3086C69.6986 64.2736 67.3609 63.3164 65 62.4252L58 59.9468C54.6051 58.7007 51.2514 57.3255 48 55.7407C46.9932 55.25 45.9858 54.7503 45 54.2184L44 53.6875C42.6306 52.9172 41.2816 52.1239 40 51.2122C37.8877 49.7096 35.964 47.9617 34.0039 46.2708C32.708 45.153 31.3774 44.0614 30.1852 42.8302L28.5285 40.9614L27.0941 39.0147L25.2539 36.321L24.5718 35.517L24.2577 35.0864L23 34z"/>
<path style="fill:#8ec644; stroke:none;" d="M28 41L29.0401 42.5224L30.159 43.6412L30.4776 43.9599L32 45L30.9599 43.4776L30.6412 43.159L29.5224 42.0401L28 41M20 43L21 44L20 43M18.3333 49.6667L18.3333 50L18.6667 50.3333L18.6667 49.6667L18.3333 49.6667M38 50L39 51L38 50M41 52L42 53L41 52M51 57L52 58L51 57M56 59L57 60L56 59M59 60L60 61L59 60M15.3333 63.6667L15.3333 64L15.6667 64.3333L15.6667 63.6667L15.3333 63.6667M67 63L68 64L67 63M72 65L73 66L72 65M74 66L75 67L74 66M82 71L83 72L82 71M14.3333 72.6667L14.3333 73.3333L14.6667 73.3333L14.6667 72.6667L14.3333 72.6667M71 75L72 76L71 75M59 80L60 81L59 80M90 80L91 81L90 80M79 82L80 84L81 84L80 82L79 82M29.6667 84.3333L29.6667 84.6667L30.3333 84.6667L30.3333 84.3333L29.6667 84.3333z"/>
<path style="fill:#3cb34c; stroke:none;" d="M66.3179 85.0864L65.0864 86.3179L64.7515 87.1296L64.7515 88.8704L65.6219 90.3781L66.3179 90.9136L67.1296 91.2485L68 91.3642L69.6821 90.9136L70.9136 89.6821L71.2485 88.8704L71.2485 87.1296L70.3781 85.6219L69.6821 85.0864L68.8704 84.7515L68 84.6358L66.3179 85.0864z"/>
<path style="fill:#8ec644; stroke:none;" d="M30 86L31 87L30 86M93 86L94 87L93 86M50 88L51 89L50 88M88 90L89 91L88 90M33 91L34 92L33 91M14 93L14 96L14.5787 95.125L14.5787 94.1991L14.5787 93.875L14 93M38 94L39 95L38 94M43 94L44 95L43 94M87 96L87 124L87.5849 122.914L87.642 122.483L87.8395 121.679C87.9438 120.784 87.9639 119.881 87.9861 118.981L88 114L88 104L87.966 100.059L87.8395 98.321L87.642 97.517L87.5849 97.0864L87 96M37 97L38 98L37 97M40 101L41 102L40 101z"/>
<path style="fill:#3cb34c; stroke:none;" d="M63 102L63 106.045L63.0193 109.001L63.0586 109.996L63.1481 110.985L63.3179 111.957L64.0278 113.787L65.3179 115.362L66.1466 116.03L67.054 116.633C67.9577 117.156 68.8825 117.609 69.8403 118.024L71.3287 118.574L73 119L73 102L63 102z"/>
<path style="fill:#8ec644; stroke:none;" d="M47 103L48 104L47 103M17 107L18 108L17 107M49 110L50 111L49 110M19 112L20 113L19 112M68 117L69 118L68 117M23 118L24 119L23 118M70 118L71 119L70 118M91 118L92 119L91 118M61 119L62 120L61 119M67 122L68 123L67 122M155.667 122.333L156 122.667L156.333 122.667L156 122.333L155.667 122.333M69 123L70 124L69 123M148 124L149 125L148 124M152 124L153 125L152 124M74 125L75 126L74 125M145 125L146 126L145 125M150 125L151 126L150 125M32 126L33 127L32 126M77 126L78 127L77 126M81 127L82 128L81 127M136.667 127.333L136.667 127.667L137.333 127.667L137 127.333L136.667 127.333M126.667 129.333L127 129.667L127.333 129.667L127.333 129.333L126.667 129.333M138 129L139 130L138 129M40 130L41 131L40 130M120.667 130.333L120.667 130.667L121.333 130.667L121.333 130.333L120.667 130.333M124.667 132.333L125 132.667L125.333 132.667L125.333 132.333L124.667 132.333M52.6667 133.333L52.6667 133.667L53.3333 133.667L53 133.333L52.6667 133.333M88.6667 133.333L88.6667 133.667L89.3333 133.667L89.3333 133.333L88.6667 133.333M118 133L118.909 133.585L119.347 133.653L121 134L120.091 133.415L119.653 133.347L118 133M100 134L101.086 134.585L101.517 134.642L102.321 134.84C103.543 134.982 104.775 134.982 106.003 134.997L113 135L111.914 134.415L111.483 134.358L110.679 134.16C109.457 134.018 108.225 134.018 106.997 134.003L100 134z"/>
</svg>
